<svg xmlns="http://www.w3.org/2000/svg" width="128.01" height="48.07" viewBox="0 0 128.01 48.07"><defs><style>.a{fill:#ff2948;}</style></defs><title>Asset 1</title><path class="a" d="M65.36,37.78c-2-.23-3.93-.37-5.83-.53A10.56,10.56,0,0,0,62.35,35h0a10.21,10.21,0,0,0,1.26-1.73,3.8,3.8,0,0,0,.3-3.27,2.65,2.65,0,0,0-1.28-1.32,4.58,4.58,0,0,0-1.24-.39A11.21,11.21,0,0,0,59,28.13a25.7,25.7,0,0,0-3.4.29c-3,.33-6.26.76-8.8,3.63l2.31,2c.32,1,.69,2,1.07,3,.17.43.33.84.5,1.25l-.08,1.21h0l.63.2c.38,1,.73,1.92,1,2.89.21.67.36,1.4.6,2.3a6.42,6.42,0,0,0,1,2.52c.29-.21,3.08-2.28,3.12-2.24a4.22,4.22,0,0,1-.39-1.2c-.06-.22-.12-.47-.19-.75-.21-.85-.43-1.69-.71-2.52,3,.33,6.12.48,9.16.83,1.3.16,2.46.8,3.8.87l.2-3.76a5.78,5.78,0,0,1-1.49-.35A10.55,10.55,0,0,0,65.36,37.78ZM54.45,35.13l-.78.16c-.33-.88-.64-1.74-.89-2.59a22.44,22.44,0,0,1,3.28-.54,25.14,25.14,0,0,1,3.88-.27c-.16.2-.34.42-.56.67A8.88,8.88,0,0,1,54.45,35.13Zm-11.2,6.29L44,45.11a13.32,13.32,0,0,1-2.16.35,37.8,37.8,0,0,0-5.41.72l-1.58.28C34,46.61,33,46.8,32,47c-1.83.37-3.68.68-5.53,1a2.73,2.73,0,0,1-3-1.36,8.91,8.91,0,0,1-.64-4.73c.13-1.45.45-3,.61-3.93a71.36,71.36,0,0,1,2.88-10.56c.3-.92.6-1.82.88-2.7L31,25.78c-.12.36-.23.72-.35,1.08A103.08,103.08,0,0,0,49.3,24.07l1,3.64a109.55,109.55,0,0,1-20.84,3v-.09c-.44,1.38-.87,2.75-1.23,4.11l8.37-.92h0a10.66,10.66,0,0,0,1.62-.55L38.93,35c0,.06.76,1.73.74,1.74l-.92.35a10,10,0,0,1-1.76.47l-8.86,1-.29-2.41c-.19.81-.35,1.62-.49,2.44-.2,1.2-.47,2.39-.58,3.65a6.93,6.93,0,0,0,0,1.93c1.43-.19,2.78-.47,4.2-.75s3.07-.59,4.61-.86a44.19,44.19,0,0,1,6.08-.81c.53-.06,1-.17,1.56-.27ZM17.45,22.24c-1.32,1-2.66,2.09-4,3.19l1.84,1.19c1.48,1,2.93,1.88,4.42,2.7a7.05,7.05,0,0,0,1.7.83l-.8,3.68c-2.67-.55-5.28-2.65-7.48-4.08-.88-.58-1.74-1.14-2.6-1.68a24.9,24.9,0,0,0-4.62,5.85c-.48.88-1,1.72-1.5,2.61a3.43,3.43,0,0,0-.55,1.86L0,38.81a7.06,7.06,0,0,1,1-3.93c.47-.93,1-1.79,1.55-2.71A31.46,31.46,0,0,1,9.37,24c2-1.8,4.15-3.49,6.14-5l1.84-1.44,1.11,1.31.26-.33A35.21,35.21,0,0,0,24,21.7c.35.18.92.44,1.44.68l.91.4-1.58,3.43c-.87-.38-1.74-.75-2.59-1.19A40.81,40.81,0,0,1,17.45,22.24Zm65.93,9.25c-.44-.1-.85-.19-1.22-.29-1.19-.29-3-.81-4.74-1.33a29.17,29.17,0,0,0,2.8-1.12,10.25,10.25,0,0,0,3.49-2.44,4.17,4.17,0,0,0,1-2.13,3.81,3.81,0,0,0-.6-2.48A4.44,4.44,0,0,0,81,19.85a12.78,12.78,0,0,0-3.27,0,36.25,36.25,0,0,0-4.87,1A28.24,28.24,0,0,0,69.36,22q-1.23-1.92-2.4-3.85L63.58,20q1.11,1.82,2.25,3.6c-1.15.62-2.28,1.28-3.41,1.93l2,3.23c1.14-.67,2.29-1.34,3.46-2,1.31,2,2.6,4,3.82,6.07a28.22,28.22,0,0,1,3,5.67l3.73-1a20.15,20.15,0,0,0-1.8-3.92c1.65.49,3.37,1,4.56,1.27q.87.23,1.65.39a17.23,17.23,0,0,1,3.55,1.06,7.59,7.59,0,0,0,2,.54c.33,0,.66.08,1,.1,0,0,.1-1.69.11-1.88l.1-1.88a6.2,6.2,0,0,1-.62-.06C87.06,32.84,85.26,31.91,83.38,31.49Zm-9.55-4.43-1,.32-1.41-2.2c.79-.29,1.6-.54,2.41-.75a31.47,31.47,0,0,1,4.32-.87,8.67,8.67,0,0,1,2.16,0c1.42.25-1.42,1.65-1.77,1.82A36.17,36.17,0,0,1,73.83,27.06Zm53.75-4.7-.18,2.28c-.24,3.08-.48,6.24-.85,9.33l-3.86-.43c.36-3,.6-6.07.84-9.15l.18-2.32a89.33,89.33,0,0,0,.4-9.4V11h0c0-.89,0-1.76-.07-2.68a9.56,9.56,0,0,0-.1-1.1,29,29,0,0,0-2.27,7.28c-.12.69-.2,1.38-.28,2.07l-3.88-.16v-1c0-.69-.08-1.65-.17-2.7a30.68,30.68,0,0,0-.93-5.87h0c-.17-.3-.36-.58-.56-.87l0,.36c-.17,1.24-.34,2.5-.46,3.48-.07.53-.14,1.05-.18,1.58a88.93,88.93,0,0,0,3.75,19.46l-3.73,1a92.69,92.69,0,0,1-3.9-20.34,11.42,11.42,0,0,1,.21-2.18c.13-1,.3-2.27.47-3.52s.34-2.48.47-3.4c.07-.5.14-1,.22-1.52L116,0l.51.62,1.21,1.54c.45.59.92,1.23,1.32,1.8a8.68,8.68,0,0,1,1,1.72,1.72,1.72,0,0,0,.14.46c.11-.26.23-.51.35-.76A14.81,14.81,0,0,1,122,3.15c.24-.32.45-.61.62-.81l.19-.24,3-.22.77.77.41.64a16.54,16.54,0,0,1,.93,4.83c.06,1,.07,2.05.08,3v1.42A89.4,89.4,0,0,1,127.58,22.36Zm-20.3,2.88a35.79,35.79,0,0,1,2,7.82l-3.85.43a28.85,28.85,0,0,0-1.36-5.57c-.75,3.07-2.33,6.4-5.69,7.57a4.25,4.25,0,0,1-3.61-.41A8.38,8.38,0,0,1,92.53,33,27.72,27.72,0,0,1,90,29a32.2,32.2,0,0,1-3.12-8.2c-.32-1.23-.61-2.47-.88-3.68-.35-1.5-.68-3-1.07-4.37l3.75-1c.41,1.49.76,3,1.1,4.49h0c.28,1.21.55,2.4.86,3.58a29,29,0,0,0,2.75,7.29,25.56,25.56,0,0,0,2.21,3.51,4.42,4.42,0,0,0,1.22,1.14,1.11,1.11,0,0,0,.27.12c1.79.27,3-3.88,3.28-4.91a28.42,28.42,0,0,0,.56-8.23q-.3-1-.51-1.95c-.29-1.22-.72-3.12-1.07-4.71l-.46-2-.18-.84,3.81-.75.17.55c.15.47.35,1.12.57,1.84.42,1.43.92,3.23,1.16,4.49.14.78.27,1.71.35,2.73.48,1.59,1.06,3.14,1.67,4.75C106.7,23.66,107,24.44,107.28,25.24Z"/></svg>