<svg width="32" height="20" viewBox="0 0 32 20" fill="none" xmlns="http://www.w3.org/2000/svg">
<path fill-rule="evenodd" clip-rule="evenodd" d="M21.5388 13.0938C14.0091 13.3587 5.16387 13.3856 -2.9852e-07 13.1707L0.141868 9.03677C5.51901 9.26061 14.9997 9.2162 22.6696 8.91248C22.3354 8.76908 22.0316 8.63777 21.7815 8.52634C21.5217 8.4106 21.2028 8.26591 20.9898 8.13765C19.7286 7.37803 18.594 6.90931 17.4166 6.42296C17.0712 6.28025 16.722 6.13603 16.3649 5.98249C14.8346 5.3245 13.2303 4.51534 11.7871 2.91759L14.45 -1.42288e-06C15.3311 0.975543 16.3417 1.53159 17.7309 2.1289C18.0068 2.24754 18.3021 2.36917 18.6136 2.4975C19.821 2.99491 21.2728 3.59302 22.7921 4.50809C22.787 4.50503 22.7917 4.50732 22.8089 4.51565C22.8506 4.53578 22.9652 4.5912 23.19 4.69137C23.4651 4.81393 23.8228 4.96786 24.2441 5.14821C24.3336 5.18653 24.4257 5.22593 24.5201 5.26631C25.3044 5.60178 26.2466 6.00479 27.1593 6.41533C28.1697 6.86988 29.2042 7.36029 29.9749 7.80155C30.3425 8.01201 30.7523 8.26817 31.0774 8.55464C31.2241 8.68387 31.4938 8.93853 31.7005 9.31836C31.9234 9.72798 32.2455 10.6678 31.6997 11.6375C31.3797 12.2058 30.8902 12.6291 30.5408 12.9026C30.1405 13.216 29.6645 13.527 29.164 13.8261C28.1594 14.4264 26.9123 15.0632 25.6521 15.6699C24.3848 16.28 23.0672 16.8772 21.9113 17.396C21.6681 17.5052 21.4333 17.6104 21.2082 17.7112C20.3485 18.0962 19.6298 18.4181 19.1244 18.6584C18.6876 18.866 17.5944 19.2211 16.793 19.4762C16.3528 19.6163 15.9324 19.7472 15.6226 19.8429C15.4675 19.8908 15.3398 19.9299 15.2505 19.9572L15.1103 20L14.6105 18.0062C14.1115 16.0121 14.1115 16.0121 14.1115 16.0121L14.2455 15.9712C14.3321 15.9447 14.4569 15.9065 14.6086 15.8596C14.9123 15.7658 15.3225 15.6382 15.7501 15.502C16.1792 15.3654 16.6186 15.2226 16.9834 15.0981C17.1661 15.0357 17.3227 14.9804 17.4462 14.9345C17.5831 14.8836 17.6364 14.86 17.636 14.8602C18.1818 14.6007 18.9524 14.2556 19.818 13.868C20.0378 13.7696 20.2637 13.6684 20.4936 13.5652C20.8324 13.4131 21.1823 13.2555 21.5388 13.0938Z" fill="white"/>
</svg>
