<svg width="256" height="96" viewBox="0 0 256 96" fill="none" xmlns="http://www.w3.org/2000/svg">
<path fill-rule="evenodd" clip-rule="evenodd" d="M31.0091 37.853C32.2708 36.8671 33.4993 35.9071 34.6741 34.9741L36.8928 37.6002L37.415 36.9484C40.67 39.3997 44.1627 41.4648 47.9334 43.399C48.6351 43.7589 49.7833 44.2869 50.8198 44.7511C51.424 45.0217 52.0298 45.2887 52.6373 45.5523L49.4809 52.4231C47.7403 51.6681 45.9914 50.9122 44.3056 50.0474C41.0692 48.3873 37.9172 46.5826 34.88 44.49C32.234 46.5593 29.5643 48.6616 26.9632 50.8595C28.2044 51.6604 29.4283 52.4606 30.6332 53.2416C33.6047 55.1677 36.4967 57.0022 39.4823 58.6318C41.3961 59.6765 41.9842 60.1085 42.8797 60.2913L41.2814 67.6515C35.943 66.5617 30.7295 62.3516 26.3217 59.4945C24.5549 58.3492 22.8386 57.2237 21.1242 56.1332C17.3516 59.8262 14.1294 63.6918 11.8825 67.8408C10.9264 69.6063 9.79174 71.276 8.88485 73.0674C7.96468 74.8851 7.68795 76.0697 7.77073 76.7714L0.0634028 77.6261C-0.286552 74.6597 0.878962 71.8116 1.92092 69.7533C2.85946 67.8993 4.02513 66.1704 5.0142 64.3441C8.39734 58.097 13.4233 52.6952 18.7151 47.9332C22.7128 44.3356 27.0262 40.9651 31.0091 37.853ZM131.638 47.206C130.12 44.8223 128.612 42.4191 127.142 39.9924L133.831 36.1833C135.395 38.7648 137.006 41.3241 138.642 43.8862C140.927 42.9611 143.269 42.2074 145.66 41.586C147.53 41.0998 151.488 40.071 155.406 39.6481C157.493 39.4228 159.821 39.3378 161.943 39.705C163.996 40.0604 166.601 40.9791 168.119 43.4046C169.067 44.9179 169.53 46.6076 169.321 48.3682C169.118 50.0791 168.323 51.504 167.395 52.6225C165.623 54.7577 162.894 56.3422 160.425 57.5053C158.649 58.342 156.678 59.0992 154.818 59.748C158.303 60.7761 161.92 61.8112 164.293 62.4058C165.043 62.5937 165.868 62.7781 166.743 62.9736C170.499 63.8131 174.108 65.6715 177.874 66.2166C178.29 66.2766 178.708 66.3222 179.126 66.3489C179.126 66.3489 179.127 66.349 178.923 70.1046C178.903 70.4717 178.746 73.8616 178.696 73.8589C178.038 73.8212 177.381 73.7501 176.729 73.6557C175.736 73.5121 174.138 73.221 172.762 72.5833C170.554 71.5604 168.322 71.0593 165.664 70.4626C164.632 70.2309 163.536 69.9848 162.352 69.6882C159.984 69.0946 156.548 68.116 153.235 67.1426C154.653 69.6008 156.021 72.2879 156.83 74.9873L149.382 77.0884C148.29 73.4485 145.839 69.8023 143.387 65.7363C140.934 61.6698 138.359 57.6568 135.746 53.6019C133.398 54.8446 131.106 56.1822 128.812 57.5158L124.822 51.0651C127.079 49.7531 129.333 48.4372 131.638 47.206ZM142.808 50.3659C143.746 51.8216 144.685 53.2838 145.619 54.7533C146.2 54.5642 146.886 54.3565 147.646 54.1261C150.278 53.3291 153.81 52.2596 157.034 50.7402C157.736 50.4095 163.417 47.6007 160.579 47.1095C159.518 46.9258 158.036 46.9322 156.264 47.1235C152.959 47.4804 149.522 48.3708 147.627 48.8621C145.994 49.2852 144.385 49.7748 142.808 50.3659ZM100.5 55.4202C86.9051 58.8481 72.7467 60.6796 58.8272 61.3919L58.8179 61.2203C57.9305 63.9796 57.0886 66.7105 56.3595 69.4458L73.0948 67.6039C73.079 67.6056 73.0811 67.6051 73.1032 67.6003C74.2215 67.3559 75.2833 66.9197 76.3384 66.4949C76.3384 66.4949 76.3381 66.495 77.8354 69.9643C77.8824 70.073 79.3517 73.4259 79.3179 73.4396C78.7132 73.6832 78.1025 73.9133 77.4878 74.1318C76.6561 74.4275 75.1377 74.9489 73.9698 75.0775L56.2341 77.0295L55.668 72.194C55.2864 73.8134 54.9519 75.4381 54.6784 77.0749C54.2774 79.4751 53.7472 81.8586 53.5253 84.3789C53.3898 85.9177 53.4078 87.2069 53.5732 88.246C56.4368 87.8571 59.1492 87.3089 61.9882 86.735C65.0489 86.1164 68.121 85.5694 71.1935 85.0112C75.0164 84.3166 79.1787 83.5603 83.365 83.4095C84.414 83.2779 85.4478 83.0538 86.4836 82.8502L86.4893 82.8491L88.0437 90.2181C86.6304 90.4975 85.1639 90.874 83.7143 90.9237C80.1421 91.0462 76.6868 91.6714 72.9086 92.355C71.8814 92.5409 70.8304 92.7311 69.7467 92.9166C67.984 93.2185 66.0746 93.601 64.0982 93.9968C60.4366 94.7303 56.7361 95.3641 53.0412 95.92C50.6477 96.2802 48.1861 95.4326 47.0823 93.2001C45.5753 90.1519 45.5423 86.6187 45.7958 83.7391C46.0506 80.8454 46.7 77.7916 47.0207 75.8721C48.2286 68.6422 50.5684 61.5122 52.7854 54.7563C53.3854 52.9277 53.9765 51.1266 54.5337 49.3584L61.9527 51.5561C61.7242 52.2811 61.4938 53.002 61.2623 53.7192C73.8383 52.9333 86.4681 51.1866 98.5474 48.1407L100.5 55.4202ZM112.109 64.3116C109.529 64.5955 107.385 64.8921 105.548 65.3968C106.046 67.1037 106.651 68.8218 107.32 70.5837C107.896 70.4663 108.43 70.3553 108.873 70.2596C112.945 69.3801 116.459 67.7583 118.741 65.1254C119.172 64.6274 119.549 64.184 119.854 63.7705C117.26 63.6816 114.679 64.0287 112.109 64.3116ZM101.352 76.5422L101.198 78.9586L101.202 78.96C101.614 79.091 101.993 79.2112 102.466 79.3597C103.222 81.2972 103.925 83.1928 104.524 85.1443C104.931 86.4707 105.24 87.9331 105.714 89.7477C106.165 91.4738 106.653 93.3319 107.778 94.7762C108.36 94.3503 113.95 90.2151 114.011 90.2987C113.61 89.576 113.439 88.6858 113.234 87.8994C113.12 87.4624 112.994 86.9513 112.86 86.4095C112.442 84.7086 111.991 83.0232 111.432 81.3607C117.533 82.0259 123.673 82.3111 129.769 83.0287C132.367 83.3345 134.689 84.6207 137.351 84.7538L137.75 77.2421C136.73 77.1912 135.743 76.8425 134.78 76.5383C133.725 76.2052 132.272 75.7465 130.704 75.5619C126.775 75.0995 122.834 74.8121 119.032 74.5044C121.102 73.3433 123.038 71.8589 124.68 69.964L124.746 69.8876C125.386 69.15 126.483 67.8854 127.258 66.427C128.062 64.9147 128.875 62.5224 127.793 59.9376C127.199 58.5202 126.073 57.7222 125.235 57.2983C124.391 56.8712 123.498 56.6447 122.75 56.5104C121.247 56.2402 119.535 56.2097 118.038 56.2522C115.012 56.3381 111.877 56.7673 111.234 56.838C105.307 57.4903 98.7164 58.3541 93.6437 64.103L98.218 67.8974C98.8564 70.0213 99.606 72.0677 100.368 74.0376C100.698 74.8918 101.027 75.7244 101.352 76.5422Z" fill="white"/>
<path d="M240.05 11.3557C240.148 11.6511 240.241 11.9587 240.332 12.2767C240.562 11.7664 240.799 11.2591 241.045 10.7551C241.772 9.26187 243.005 7.51461 243.91 6.29578C244.389 5.65097 244.83 5.08488 245.15 4.67978C245.311 4.47665 245.443 4.31254 245.536 4.19756L251.524 3.75387L253.053 5.30331L253.882 6.58282C255.094 9.71448 255.542 13.1086 255.735 16.2464C255.857 18.2281 255.883 20.3475 255.907 22.2721C255.92 23.2962 255.932 24.2654 255.957 25.1295C256.152 31.767 255.65 38.3561 255.139 44.7251C255.018 46.2321 254.9 47.7513 254.782 49.279C254.303 55.4465 253.814 61.7512 253.077 67.9372L245.37 67.0738C246.088 61.0517 246.563 54.9372 247.041 48.7838C247.161 47.2387 247.281 45.6912 247.405 44.142C247.918 37.739 248.384 31.527 248.203 25.3436C248.169 24.2123 248.157 23.1254 248.145 22.0525L248.145 22.0503C248.124 20.2726 248.105 18.5334 247.991 16.6947C247.945 15.9401 247.884 15.2082 247.804 14.5008C245.648 19.0668 244.176 24.021 243.265 29.0694C243.018 30.4398 242.864 31.8278 242.7 33.2096L234.949 32.8705C234.94 32.5747 234.915 31.8359 234.866 30.7982C234.8 29.4126 234.69 27.5025 234.517 25.402C234.16 21.0705 233.562 16.3732 232.662 13.6505C232.665 13.6598 232.658 13.6463 232.637 13.6097C232.303 13.007 231.917 12.4321 231.524 11.8646L231.426 12.5768C231.084 15.0665 230.746 17.5806 230.498 19.5385C230.364 20.5927 230.217 21.6489 230.134 22.7086C230.879 35.5452 233.967 48.9862 237.645 61.6214L230.179 63.6644C226.423 50.7601 223.155 36.6554 222.38 22.9724C222.298 21.5312 222.618 20.0441 222.798 18.6211C223.051 16.6254 223.393 14.0817 223.736 11.5849C224.079 9.08564 224.424 6.62321 224.683 4.78629C224.825 3.77358 224.969 2.76098 225.113 1.74845L232.068 0C232.222 0.187654 232.584 0.631027 233.072 1.23809C233.722 2.0459 234.599 3.15017 235.503 4.32755C236.401 5.49806 237.35 6.77376 238.133 7.91647C238.806 8.89987 239.681 10.2383 240.05 11.3557Z" fill="white"/>
<path d="M208.774 30.8473C209.067 32.4025 209.312 34.2626 209.478 36.3031C210.448 39.4721 211.61 42.5746 212.817 45.7976C213.388 47.3231 213.969 48.8755 214.545 50.4749C216.336 55.4498 218.001 60.7021 218.641 66.1243L210.934 66.9791C210.503 63.3299 209.504 59.6514 208.228 55.8433C206.722 61.9713 203.555 68.6312 196.84 70.9804C194.105 71.9371 191.565 71.2735 189.628 70.1635C187.777 69.1027 186.24 67.5223 185.037 66.0385C182.64 63.0814 180.733 59.4126 179.937 58.0218C176.933 52.7735 175.115 47.128 173.691 41.6186C173.055 39.1596 172.487 36.6795 171.934 34.2659C171.243 31.2504 170.576 28.3426 169.8 25.523L177.296 23.5843C178.117 26.5698 178.813 29.6079 179.492 32.5675L179.507 32.6324C180.063 35.0589 180.607 37.4362 181.216 39.7904C182.577 45.0567 184.199 49.9675 186.72 54.3726C187.737 56.1499 189.235 59.0457 191.136 61.3903C192.082 62.5573 192.918 63.312 193.575 63.6881C193.878 63.862 194.056 63.9042 194.121 63.9138C197.708 64.4519 200.178 56.1541 200.684 54.0913C201.968 48.8616 202.15 42.6797 201.801 37.6453C201.422 36.3599 201.073 35.0601 200.769 33.7476C200.203 31.3014 199.348 27.5048 198.637 24.3291C198.281 22.7393 197.961 21.3016 197.729 20.2615L197.355 18.5777L204.98 17.0755C205.064 17.3382 205.184 17.7171 205.331 18.1858C205.623 19.1223 206.023 20.4209 206.451 21.8691C207.293 24.7151 208.296 28.3116 208.774 30.8473Z" fill="white"/>
</svg>
