<svg width="192" height="72" viewBox="0 0 192 72" fill="none" xmlns="http://www.w3.org/2000/svg">
<path fill-rule="evenodd" clip-rule="evenodd" d="M23.2568 28.3897C24.2031 27.6503 25.1245 26.9303 26.0056 26.2305L27.6696 28.2001L28.0612 27.7113C30.5025 29.5498 33.122 31.0986 35.95 32.5492C36.4764 32.8192 37.3375 33.2152 38.1149 33.5633C38.568 33.7662 39.0224 33.9666 39.4779 34.1642L37.1106 39.3173C35.8052 38.7511 34.4936 38.1841 33.2292 37.5356C30.8019 36.2904 28.4379 34.937 26.16 33.3675C24.1755 34.9195 22.1732 36.4962 20.2224 38.1446C21.1533 38.7453 22.0713 39.3454 22.9749 39.9312C25.2035 41.3758 27.3725 42.7516 29.6117 43.9739C31.0471 44.7574 31.4882 45.0814 32.1598 45.2185L30.961 50.7386C26.9573 49.9213 23.0471 46.7637 19.7413 44.6209C18.4162 43.7619 17.129 42.9178 15.8431 42.0999C13.0137 44.8696 10.5971 47.7689 8.91188 50.8806C8.1948 52.2047 7.3438 53.457 6.66364 54.8006C5.97351 56.1638 5.76596 57.0523 5.82804 57.5785L0.0475521 58.2196C-0.214914 55.9948 0.659222 53.8587 1.44069 52.315C2.14459 50.9245 3.01885 49.6278 3.76065 48.2581C6.29801 43.5728 10.0675 39.5214 14.0363 35.9499C17.0346 33.2517 20.2697 30.7238 23.2568 28.3897ZM98.7286 35.4045C97.5898 33.6167 96.459 31.8143 95.3565 29.9943L100.373 27.1374C101.546 29.0736 102.754 30.993 103.981 32.9147C105.695 32.2209 107.452 31.6556 109.245 31.1895C110.648 30.8249 113.616 30.0533 116.554 29.7361C118.12 29.5671 119.866 29.5033 121.457 29.7788C122.997 30.0453 124.951 30.7343 126.09 32.5535C126.8 33.6884 127.148 34.9557 126.991 36.2762C126.839 37.5593 126.242 38.628 125.546 39.4669C124.218 41.0683 122.17 42.2566 120.319 43.1289C118.987 43.7565 117.508 44.3244 116.113 44.811C118.727 45.582 121.44 46.3584 123.22 46.8044C123.782 46.9452 124.401 47.0836 125.057 47.2302C127.874 47.8598 130.581 49.2537 133.406 49.6624C133.717 49.7075 134.031 49.7416 134.345 49.7617C134.345 49.7617 134.345 49.7617 134.192 52.5784C134.177 52.8538 134.06 55.3962 134.022 55.3942C133.528 55.3659 133.036 55.3125 132.547 55.2418C131.802 55.1341 130.603 54.9157 129.571 54.4375C127.916 53.6703 126.242 53.2945 124.248 52.8469C123.474 52.6732 122.652 52.4886 121.764 52.2661C119.988 51.821 117.411 51.087 114.926 50.357C115.989 52.2006 117.015 54.2159 117.623 56.2405L112.036 57.8163C111.217 55.0863 109.38 52.3518 107.54 49.3023C105.701 46.2523 103.769 43.2426 101.81 40.2015C100.049 41.1334 98.3291 42.1366 96.6088 43.1368L93.6167 38.2988C95.309 37.3149 97.0001 36.3279 98.7286 35.4045ZM107.106 37.7744C107.809 38.8662 108.513 39.9628 109.214 41.065C109.65 40.9231 110.164 40.7674 110.735 40.5946C112.709 39.9968 115.357 39.1947 117.776 38.0552C118.302 37.8072 122.562 35.7005 120.434 35.3321C119.638 35.1943 118.527 35.1992 117.198 35.3426C114.719 35.6103 112.142 36.2781 110.72 36.6465C109.496 36.9639 108.289 37.3311 107.106 37.7744ZM75.3749 41.5651C65.1788 44.1361 54.56 45.5097 44.1204 46.0439L44.1134 45.9153C43.4479 47.9847 42.8165 50.0329 42.2696 52.0844L54.8211 50.7029C54.8092 50.7042 54.8109 50.7039 54.8274 50.7002C55.6661 50.517 56.4625 50.1898 57.2538 49.8711C57.2538 49.8711 57.2536 49.8713 58.3766 52.4732C58.4118 52.5548 59.5138 55.0694 59.4884 55.0797C59.0349 55.2624 58.5769 55.435 58.1158 55.5989C57.492 55.8206 56.3532 56.2117 55.4773 56.3081L42.1756 57.7721L41.751 54.1455C41.4648 55.36 41.2139 56.5785 41.0088 57.8061C40.7081 59.6063 40.3104 61.394 40.144 63.2842C40.0424 64.4382 40.0558 65.4052 40.1799 66.1845C42.3276 65.8929 44.3619 65.4817 46.4912 65.0513C48.7867 64.5873 51.0907 64.1771 53.3951 63.7584C56.2623 63.2374 59.384 62.6703 62.5237 62.5571C63.3105 62.4584 64.0858 62.2904 64.8627 62.1377L64.867 62.1368L66.0328 67.6636C64.9728 67.8731 63.8729 68.1555 62.7857 68.1928C60.1066 68.2847 57.5151 68.7536 54.6814 69.2663C53.9111 69.4057 53.1228 69.5483 52.3101 69.6875C50.988 69.9138 49.5559 70.2007 48.0737 70.4976C45.3274 71.0478 42.5521 71.5231 39.7809 71.94C37.9858 72.2101 36.1395 71.5745 35.3117 69.9001C34.1814 67.6139 34.1567 64.9641 34.3469 62.8043C34.538 60.634 35.025 58.3437 35.2655 56.9041C36.1715 51.4817 37.9263 46.1341 39.5891 41.0672C40.0391 39.6958 40.4824 38.345 40.9002 37.0188L46.4645 38.667C46.2932 39.2109 46.1203 39.7515 45.9468 40.2894C55.3787 39.7 64.8511 38.3899 73.9105 36.1055L75.3749 41.5651ZM84.0817 48.2337C82.1468 48.4466 80.5386 48.6691 79.1612 49.0476C79.5346 50.3278 79.9886 51.6164 80.4898 52.9378C80.9216 52.8497 81.3222 52.7664 81.6546 52.6947C84.7086 52.0351 87.3442 50.8187 89.0555 48.844C89.3792 48.4705 89.6614 48.138 89.8904 47.8279C87.9453 47.7612 86.0095 48.0215 84.0817 48.2337ZM76.0138 57.4067L75.8982 59.2189L75.9017 59.22C76.2105 59.3183 76.4951 59.4084 76.8494 59.5198C77.4164 60.9729 77.9441 62.3946 78.3932 63.8582C78.6985 64.853 78.9298 65.9498 79.2856 67.3108C79.6241 68.6054 79.9896 69.9989 80.8336 71.0821C81.2697 70.7627 85.4622 67.6613 85.5083 67.724C85.2074 67.182 85.0796 66.5143 84.9254 65.9245C84.8397 65.5968 84.7454 65.2135 84.6453 64.8071C84.3313 63.5315 83.9935 62.2674 83.5739 61.0205C88.1501 61.5194 92.7546 61.7334 97.3266 62.2715C99.275 62.5009 101.017 63.4655 103.013 63.5653L103.313 57.9316C102.548 57.8934 101.807 57.6318 101.085 57.4037C100.294 57.1539 99.2037 56.8099 98.0277 56.6714C95.0811 56.3246 92.1252 56.1091 89.2744 55.8783C90.8268 55.0074 92.2784 53.8942 93.51 52.473L93.5597 52.4157C94.0396 51.8625 94.8624 50.914 95.4436 49.8203C96.0462 48.686 96.6566 46.8918 95.8447 44.9532C95.3995 43.8902 94.5545 43.2916 93.9261 42.9737C93.2929 42.6534 92.6235 42.4835 92.0628 42.3828C90.935 42.1802 89.6512 42.1573 88.5282 42.1892C86.2593 42.2536 83.9075 42.5754 83.4255 42.6285C78.9803 43.1177 74.0373 43.7656 70.2328 48.0773L73.6635 50.9231C74.1423 52.516 74.7045 54.0508 75.2757 55.5282C75.5233 56.1688 75.7703 56.7933 76.0138 57.4067Z" fill="#FF1C52"/>
<path d="M180.037 8.5168C180.111 8.73835 180.181 8.96899 180.249 9.2075C180.421 8.82481 180.6 8.44434 180.784 8.06634C181.329 6.9464 182.253 5.63596 182.933 4.72183C183.292 4.23822 183.622 3.81366 183.863 3.50983C183.983 3.35749 184.082 3.2344 184.152 3.14817L188.643 2.81541L189.79 3.97748L190.412 4.93711C191.32 7.28586 191.656 9.83148 191.801 12.1848C191.893 13.6711 191.912 15.2606 191.93 16.704C191.94 17.4722 191.949 18.199 191.968 18.8472C192.114 23.8252 191.737 28.767 191.354 33.5438C191.264 34.674 191.175 35.8135 191.086 36.9592C190.727 41.5849 190.36 46.3134 189.808 50.9529L184.028 50.3054C184.566 45.7888 184.922 41.2029 185.28 36.5879C185.37 35.429 185.461 34.2684 185.554 33.1065C185.939 28.3043 186.288 23.6452 186.152 19.0077C186.127 18.1592 186.118 17.3441 186.109 16.5394L186.109 16.5377C186.093 15.2045 186.078 13.9 185.993 12.521C185.959 11.9551 185.913 11.4061 185.853 10.8756C184.236 14.3001 183.132 18.0157 182.449 21.802C182.264 22.8298 182.148 23.8708 182.025 24.9072L176.212 24.6529C176.205 24.431 176.186 23.8769 176.149 23.0987C176.1 22.0595 176.018 20.6268 175.888 19.0515C175.62 15.8029 175.171 12.2799 174.497 10.2379C174.499 10.2448 174.493 10.2347 174.478 10.2073C174.227 9.75528 173.938 9.32404 173.643 8.89847L173.569 9.43262C173.313 11.2999 173.06 13.1855 172.873 14.6539C172.773 15.4446 172.663 16.2367 172.601 17.0314C173.159 26.6589 175.475 36.7396 178.234 46.2161L172.634 47.7483C169.817 38.0701 167.366 27.4916 166.785 17.2293C166.724 16.1484 166.963 15.0331 167.099 13.9659C167.288 12.4691 167.545 10.5613 167.802 8.68868C168.059 6.81423 168.318 4.96741 168.512 3.58972C168.619 2.83018 168.727 2.07074 168.835 1.31134L174.051 0C174.166 0.14074 174.438 0.47327 174.804 0.92857C175.292 1.53443 175.95 2.36263 176.627 3.24566C177.301 4.12354 178.013 5.08032 178.6 5.93735C179.104 6.6749 179.761 7.67872 180.037 8.5168Z" fill="#FF1C52"/>
<path d="M156.58 23.1355C156.8 24.3019 156.984 25.697 157.109 27.2273C157.836 29.6041 158.707 31.931 159.613 34.3482C160.041 35.4923 160.477 36.6566 160.909 37.8562C162.252 41.5873 163.501 45.5266 163.981 49.5932L158.2 50.2343C157.877 47.4975 157.128 44.7385 156.171 41.8825C155.042 46.4785 152.666 51.4734 147.63 53.2353C145.579 53.9528 143.674 53.4551 142.221 52.6227C140.832 51.827 139.68 50.6417 138.778 49.5289C136.98 47.311 135.55 44.5594 134.953 43.5163C132.7 39.5801 131.336 35.346 130.268 31.214C129.791 29.3697 129.365 27.5096 128.951 25.6995C128.432 23.4378 127.932 21.2569 127.35 19.1423L132.972 17.6882C133.588 19.9274 134.11 22.2059 134.619 24.4256L134.63 24.4743C135.047 26.2942 135.455 28.0771 135.912 29.8428C136.933 33.7925 138.15 37.4756 140.04 40.7794C140.803 42.1125 141.927 44.2843 143.352 46.0427C144.062 46.918 144.689 47.484 145.181 47.7661C145.409 47.8965 145.542 47.9281 145.591 47.9353C148.281 48.339 150.133 42.1156 150.513 40.5685C151.476 36.6462 151.613 32.0098 151.351 28.2339C151.066 27.2699 150.805 26.2951 150.577 25.3107C150.152 23.476 149.511 20.6286 148.978 18.2468C148.711 17.0544 148.471 15.9762 148.297 15.1961L148.016 13.9333L153.735 12.8066C153.798 13.0037 153.888 13.2878 153.998 13.6393C154.217 14.3417 154.517 15.3156 154.839 16.4018C155.47 18.5363 156.222 21.2337 156.58 23.1355Z" fill="#FF1C52"/>
</svg>
