<svg width="43" height="105" viewBox="0 0 43 105" fill="none" xmlns="http://www.w3.org/2000/svg">
<path fill-rule="evenodd" clip-rule="evenodd" d="M23.4696 12.1701C29.8093 15.9723 36.1177 19.7556 42.4878 23.3951L39.5114 28.6047C33.0853 24.9333 26.7294 21.1215 20.4059 17.3291L19.9596 17.0614C13.4792 13.1749 7.03049 9.31203 0.516617 5.60771L3.48264 0.39209C10.0661 4.13597 16.5726 8.03384 23.0455 11.9158L23.4696 12.1701ZM5.10777 56.129C6.32428 55.6711 8.10764 54.9999 9.99963 54.9999V60.9999C9.30715 60.9999 8.49919 61.2652 7.04983 61.8088C6.99464 61.8295 6.93812 61.8508 6.88031 61.8726C5.66613 62.3297 3.88567 62.9999 1.99963 62.9999V56.9999C2.68687 56.9999 3.49096 56.7355 4.94281 56.191C4.99655 56.1708 5.05156 56.1501 5.10777 56.129ZM0.479492 99.4136C8.75691 94.5485 17.8494 90.2344 26.7796 86.2592L29.2196 91.7406C20.3556 95.6863 11.5052 99.8927 3.51977 104.586L0.479492 99.4136Z" fill="#FF2948"/>
</svg>
