<svg width="51" height="100" viewBox="0 0 51 100" fill="none" xmlns="http://www.w3.org/2000/svg">
<path fill-rule="evenodd" clip-rule="evenodd" d="M50.2572 5.72388C36.6954 11.9832 23.7462 20.329 10.7218 29.4568L7.27833 24.5433C20.3936 15.3518 33.69 6.76205 47.7429 0.276123L50.2572 5.72388ZM35.154 56.4964C31.5207 56.7442 27.7698 57 24.0001 57V51C27.5485 51 31.1122 50.7581 34.7954 50.507L34.8438 50.5037C38.4775 50.2558 42.2291 50 46.0001 50V56C42.4509 56 38.8868 56.2419 35.2036 56.493L35.154 56.4964ZM22.8186 92.832C15.3848 90.5077 7.93618 87.9932 0.758789 84.7312L3.24134 79.2688C10.0739 82.3741 17.2386 84.8008 24.6091 87.1054C26.7803 87.7842 28.9783 88.455 31.1905 89.1301C36.4299 90.7292 41.7491 92.3525 46.982 94.1653L45.0181 99.8347C39.8953 98.0602 34.7495 96.4898 29.5583 94.9056C27.3208 94.2228 25.0748 93.5374 22.8186 92.832Z" fill="#FF2948"/>
</svg>
