<svg width="73" height="49" viewBox="0 0 73 49" fill="none" xmlns="http://www.w3.org/2000/svg">
<path fill-rule="evenodd" clip-rule="evenodd" d="M36.71 42.3965C24.0609 37.3767 9.13502 31.1475 0.572266 27.3279L2.20178 23.6749C11.149 27.666 27.1108 34.3139 40.0659 39.4226C39.146 38.7597 38.3866 38.2054 38.0883 37.949C36.1744 36.3034 34.3295 34.9989 32.5383 33.7325C32.0323 33.3747 31.5306 33.02 31.0329 32.6615C28.8253 31.0714 26.6892 29.4007 25.0435 27.1767L28.2589 24.7974C29.5087 26.4863 31.2022 27.8537 33.3708 29.4158C33.8176 29.7376 34.2851 30.068 34.7694 30.4103C36.5793 31.6893 38.6235 33.134 40.6961 34.9159C40.8906 35.0831 41.7373 35.6982 43.0542 36.6448C43.1888 36.7416 43.3271 36.841 43.4686 36.9427C44.6463 37.789 46.0454 38.7943 47.3923 39.7853C48.8929 40.8894 50.3675 42.004 51.4143 42.8778C51.9218 43.3015 52.4055 43.7315 52.7419 44.1063C52.8773 44.2571 53.1557 44.5768 53.3284 44.9914C53.4106 45.1889 53.5927 45.6936 53.4445 46.3207C53.2576 47.1109 52.682 47.5857 52.1566 47.7863C51.515 48.0314 50.7144 48.0609 50.1145 48.0614C49.4177 48.062 48.5838 48.0135 47.6778 47.9348C45.8604 47.777 43.6127 47.4852 41.3118 47.1512C39.0048 46.8163 36.6141 46.4345 34.5041 46.0927C34.067 46.0219 33.6429 45.9529 33.2344 45.8866C31.6599 45.6307 30.3185 45.4126 29.3678 45.2717C28.7178 45.1753 26.9331 44.7711 25.4365 44.424C24.6604 44.2441 23.9194 44.0694 23.3727 43.9397C23.0993 43.8749 22.8742 43.8213 22.7173 43.7838L22.4712 43.7249C22.4712 43.7249 22.4711 43.7249 22.9379 41.7801C23.4047 39.8354 23.4047 39.8354 23.4047 39.8354L23.6463 39.8932C23.8014 39.9302 24.0245 39.9834 24.2957 40.0477C24.8383 40.1763 25.5724 40.3494 26.34 40.5274C27.9309 40.8963 29.5079 41.2487 29.9546 41.3149C30.9356 41.4604 32.3156 41.6847 33.8944 41.9413C34.2989 42.0071 34.7165 42.075 35.1438 42.1442C35.6525 42.2266 36.1762 42.3111 36.71 42.3965Z" fill="#FF2948"/>
<path fill-rule="evenodd" clip-rule="evenodd" d="M34.6739 4.69771C47.8869 7.7832 63.5224 11.7263 72.5285 14.2316L71.4565 18.0853C62.0461 15.4675 45.3272 11.2642 31.7996 8.1363C32.8047 8.65544 33.636 9.09119 33.9684 9.30082C36.0972 10.6434 38.1077 11.659 40.0602 12.6453C40.6118 12.924 41.1588 13.2003 41.7025 13.4809C44.1135 14.7255 46.4667 16.0609 48.4172 18.0165L45.585 20.8412C44.1055 19.3578 42.2356 18.2577 39.8677 17.0353C39.3799 16.7835 38.8703 16.5262 38.3425 16.2598C36.3696 15.2638 34.1407 14.1386 31.8346 12.6841C31.6187 12.548 30.6939 12.0658 29.2558 11.3252C29.1088 11.2495 28.9578 11.1717 28.8033 11.0922C27.5175 10.4303 25.99 9.64397 24.516 8.86406C22.8739 7.99514 21.2557 7.1119 20.0947 6.4031C19.5318 6.05947 18.9911 5.70581 18.6038 5.38476C18.4479 5.25551 18.1257 4.98017 17.8942 4.5952C17.7837 4.4115 17.5305 3.9399 17.5847 3.2993C17.6528 2.49292 18.1493 1.93874 18.639 1.6618C19.2369 1.32378 20.0233 1.17553 20.6152 1.08594C21.3028 0.981882 22.1328 0.90606 23.0382 0.849332C24.8543 0.735536 27.1144 0.690373 29.433 0.679044C31.7578 0.667685 34.172 0.690295 36.3034 0.71501C36.745 0.72013 37.1736 0.725326 37.5863 0.730329C39.1767 0.749612 40.5317 0.76604 41.49 0.76429C42.1459 0.763094 43.9662 0.897854 45.493 1.01878C46.285 1.08151 47.0416 1.14424 47.5998 1.19127C47.8791 1.21479 48.109 1.2344 48.2692 1.24815L48.5206 1.26982C48.5206 1.26982 48.5207 1.26983 48.3474 3.26231C48.174 5.25478 48.174 5.25478 48.174 5.25478L47.9273 5.23351C47.7688 5.21991 47.541 5.20048 47.2641 5.17715C46.71 5.13048 45.9605 5.06833 45.1772 5.0063C43.5537 4.87771 41.9471 4.76346 41.4973 4.76428C40.5083 4.76609 39.1141 4.74917 37.5192 4.72982C37.1105 4.72486 36.6886 4.71975 36.257 4.71474C35.7427 4.70878 35.2133 4.70295 34.6739 4.69771Z" fill="#FF2948"/>
</svg>
