<svg width="38" height="70" viewBox="0 0 38 70" fill="none" xmlns="http://www.w3.org/2000/svg">
<path fill-rule="evenodd" clip-rule="evenodd" d="M13.4693 6.00193C11.4502 6.0465 9.59037 6.84808 8.11591 9.41132C6.9465 11.4442 6.24303 14.2498 6.05248 17.324C5.86328 20.3764 6.19515 23.4553 6.88898 25.9032L1.11637 27.5393C0.221976 24.3838 -0.163438 20.6216 0.06397 16.9529C0.290023 13.306 1.13705 9.51039 2.915 6.41957C5.47019 1.97759 9.2871 0.0928005 13.3369 0.00338736C17.1457 -0.0807048 20.9342 1.41294 23.9573 3.14332C30.1164 6.66867 35.3165 11.5807 37.4523 19.63C38.0304 21.8086 38.249 24.0162 37.6194 26.124C36.9658 28.3122 35.5266 29.975 33.5981 31.2668C32.9791 31.6815 32.0556 32.1053 31.1991 32.4792C30.2655 32.8867 29.1129 33.3595 27.8757 33.8667L27.8293 33.8857C25.3318 34.9096 22.4177 36.1042 19.7383 37.3752C16.9761 38.6855 14.7495 39.947 13.5024 41.0294C12.9623 41.4981 12.8341 41.7416 12.8294 41.7392C12.8284 41.7387 12.8327 41.7277 12.8398 41.7059C12.8787 41.5858 12.9205 41.3461 12.8518 41.0547C12.7849 40.7703 12.6563 40.6217 12.6414 40.6057L8.26128 44.7063C7.69314 44.0994 7.22595 43.3404 7.01156 42.4299C6.79551 41.5124 6.88108 40.6308 7.13177 39.8569C7.59643 38.4224 8.64023 37.3046 9.56969 36.498C11.4856 34.8352 14.366 33.2828 17.1668 31.9541C19.9933 30.6134 23.0321 29.3677 25.4937 28.3586L25.5998 28.3151C26.8566 27.7999 27.9401 27.3551 28.7987 26.9803C29.2266 26.7935 29.5737 26.6348 29.8424 26.5029C29.9758 26.4374 30.0787 26.3839 30.1552 26.3418C30.229 26.3011 30.2596 26.2813 30.2596 26.2814C30.2596 26.2814 30.2594 26.2815 30.259 26.2818C31.3289 25.5652 31.7083 24.9495 31.8704 24.4068C32.0565 23.7837 32.0879 22.808 31.653 21.1688C30.0573 15.1549 26.2495 11.3687 20.9767 8.35063C18.4018 6.87676 15.7294 5.95203 13.4693 6.00193ZM7.94961 53.7152C10.453 53.0866 12.8729 53.7777 13.7964 54.08C14.6728 54.3669 15.5492 54.9823 16.2347 55.5776C16.9932 56.2362 17.8089 57.1232 18.4886 58.2113C19.8758 60.4316 20.7669 63.6628 19.1362 67.2182C18.6462 68.2866 17.8451 69.0884 16.8419 69.5504C15.9109 69.9791 14.9978 70.0284 14.335 69.989C13.2225 69.9231 11.7927 69.4406 11.9846 69.4892C11.9129 69.4708 11.7737 69.4402 11.5888 69.3995C10.986 69.2669 9.89793 69.0276 9.08379 68.7587C8.11296 68.438 6.90785 67.9172 5.8482 66.9824C5.08434 66.7609 4.24174 66.3713 3.51769 65.6753C2.25344 64.4599 1.83673 62.7959 2.07325 61.097C2.35325 59.0857 3.02188 57.3955 4.11837 56.0923C5.23098 54.7699 6.6122 54.0511 7.94961 53.7152ZM9.86771 62.525C10.0766 62.6935 10.4161 62.8799 10.9655 63.0614C11.3241 63.1798 11.7116 63.2772 12.1419 63.3741C12.2451 63.3974 12.3645 63.4235 12.4921 63.4513C12.8133 63.5214 13.1863 63.6028 13.4837 63.6794C13.6412 63.72 13.8173 63.7754 13.9136 63.8057L13.9421 63.8147C13.9501 63.8172 13.9581 63.8197 13.966 63.8222C14.119 62.9343 13.8666 62.1372 13.4001 61.3903C13.0772 60.8736 12.6723 60.4305 12.3007 60.1079C12.0205 59.8645 11.8522 59.7678 11.8253 59.749C11.1324 59.5344 10.1514 59.3486 9.41094 59.5345C9.1074 59.6107 8.89327 59.7367 8.70952 59.9551C8.54932 60.1455 8.30632 60.5345 8.13122 61.2916C8.33723 61.2956 8.56189 61.2856 8.79044 61.2632C8.97183 61.2453 9.13551 61.2215 9.26777 61.1982C9.33342 61.1866 9.38797 61.1757 9.4299 61.1666C9.4507 61.1621 9.46724 61.1583 9.47948 61.1553L9.49357 61.1519L9.49736 61.1509L9.49835 61.1506L9.49868 61.1506L9.86771 62.525ZM14.7082 64C14.7082 64.0001 14.705 64.0002 14.6984 64C14.7048 63.9998 14.7082 63.9999 14.7082 64Z" fill="#FF2948"/>
</svg>
